<svg data-v-423bf9ae="" xmlns="http://www.w3.org/2000/svg" viewBox="0 0 569 95" class="iconLeftSlogan"><!----><!----><!----><g data-v-423bf9ae="" id="1f8019c1-7a81-4c0a-825a-70a080c14ced" fill="black" transform="matrix(5.376344159530915,0,0,5.376344159530915,108.08405388496658,-15.053762675066757)"><path d="M0.44 13.78L2.37 2.80L5.13 2.80L5.45 11.98L9.02 2.80L11.80 2.80L9.86 13.78L8.15 13.78L9.30 7.20L9.93 4.24L9.88 4.24L5.97 13.78L4.35 13.78L3.81 4.24L3.73 4.24L3.33 7.18L2.15 13.78L0.44 13.78ZM15.65 5.48L15.65 5.48Q16.82 5.48 17.49 6.01L17.49 6.01L17.49 6.01Q18.16 6.54 18.16 7.56L18.16 7.56L18.16 7.56Q18.16 7.88 18.11 8.18L18.11 8.18L17.12 13.78L15.70 13.78L15.84 12.56L15.74 12.56L15.74 12.56Q15.46 13.04 15.07 13.36L15.07 13.36L15.07 13.36Q14.68 13.67 14.27 13.82L14.27 13.82L14.27 13.82Q13.86 13.96 13.50 13.96L13.50 13.96L13.50 13.96Q12.93 13.96 12.51 13.75L12.51 13.75L12.51 13.75Q12.09 13.54 11.86 13.16L11.86 13.16L11.86 13.16Q11.64 12.77 11.64 12.26L11.64 12.26L11.64 12.26Q11.64 12.04 11.68 11.81L11.68 11.81L11.68 11.81Q11.81 11.06 12.21 10.51L12.21 10.51L12.21 10.51Q12.61 9.97 13.29 9.53L13.29 9.53L13.29 9.53Q14.54 8.76 16.50 8.48L16.50 8.48L16.56 8.17L16.56 8.17Q16.63 7.83 16.63 7.59L16.63 7.59L16.63 7.59Q16.63 7.15 16.39 6.96L16.39 6.96L16.39 6.96Q16.15 6.76 15.65 6.76L15.65 6.76L15.65 6.76Q14.46 6.76 13.73 8.02L13.73 8.02L12.57 7.31L12.57 7.31Q13.09 6.37 13.88 5.92L13.88 5.92L13.88 5.92Q14.66 5.48 15.65 5.48L15.65 5.48ZM14 12.67L14 12.67Q14.57 12.67 15.08 12.28L15.08 12.28L15.08 12.28Q15.59 11.90 15.99 11.30L15.99 11.30L16.28 9.67L16.28 9.67Q15.71 9.74 15.20 9.92L15.20 9.92L15.20 9.92Q14.68 10.10 14.29 10.37L14.29 10.37L14.29 10.37Q13.89 10.62 13.63 10.98L13.63 10.98L13.63 10.98Q13.36 11.34 13.30 11.76L13.30 11.76L13.30 11.76Q13.28 11.87 13.28 11.97L13.28 11.97L13.28 11.97Q13.28 12.30 13.47 12.48L13.47 12.48L13.47 12.48Q13.67 12.67 14 12.67L14 12.67ZM22.06 13.78L23.99 2.80L29.49 2.80L29.23 4.30L25.46 4.30L24.88 7.54L28.12 7.54L27.86 9.04L24.62 9.04L23.78 13.78L22.06 13.78ZM28.74 13.78L30.17 5.63L31.66 5.63L31.47 6.90L31.55 6.90L31.55 6.90Q32.23 5.50 33.26 5.50L33.26 5.50L33.26 5.50Q33.69 5.50 34.08 5.64L34.08 5.64L33.81 7.17L33.81 7.17Q33.56 7.10 33.33 7.10L33.33 7.10L33.23 7.10L33.23 7.10Q32.44 7.15 31.89 7.81L31.89 7.81L31.89 7.81Q31.34 8.46 31.12 9.67L31.12 9.67L30.41 13.78L28.74 13.78ZM37.54 5.48L37.54 5.48Q38.88 5.48 39.46 6.22L39.46 6.22L39.46 6.22Q40.04 6.97 40.04 8.21L40.04 8.21L40.04 8.21Q40.04 8.80 39.92 9.53L39.92 9.53L39.92 9.53Q39.85 9.91 39.76 10.22L39.76 10.22L35.27 10.22L35.27 10.22Q35.21 10.58 35.21 10.90L35.21 10.90L35.21 10.90Q35.21 11.67 35.54 12.12L35.54 12.12L35.54 12.12Q35.88 12.57 36.54 12.57L36.54 12.57L36.54 12.57Q37.02 12.57 37.45 12.35L37.45 12.35L37.45 12.35Q37.88 12.13 38.24 11.72L38.24 11.72L39.28 12.41L39.28 12.41Q38.68 13.27 37.98 13.61L37.98 13.61L37.98 13.61Q37.28 13.95 36.44 13.95L36.44 13.95L36.44 13.95Q35.54 13.95 34.91 13.55L34.91 13.55L34.91 13.55Q34.28 13.15 33.96 12.42L33.96 12.42L33.96 12.42Q33.65 11.70 33.65 10.75L33.65 10.75L33.65 10.75Q33.65 10.21 33.75 9.61L33.75 9.61L33.75 9.61Q33.96 8.42 34.43 7.50L34.43 7.50L34.43 7.50Q34.90 6.57 35.68 6.02L35.68 6.02L35.68 6.02Q36.46 5.48 37.54 5.48L37.54 5.48ZM37.54 6.80L37.54 6.80Q36.70 6.80 36.20 7.43L36.20 7.43L36.20 7.43Q35.70 8.07 35.49 9.04L35.49 9.04L38.58 9.04L38.58 9.04Q38.67 8.45 38.67 8.06L38.67 8.06L38.67 8.06Q38.67 7.44 38.41 7.12L38.41 7.12L38.41 7.12Q38.16 6.80 37.54 6.80L37.54 6.80ZM43.05 13.95L43.05 13.95Q42.24 13.95 41.61 13.65L41.61 13.65L41.61 13.65Q40.98 13.35 40.60 12.78L40.60 12.78L40.60 12.78Q40.22 12.21 40.13 11.42L40.13 11.42L41.47 10.98L41.47 10.98Q41.49 11.50 41.71 11.89L41.71 11.89L41.71 11.89Q41.92 12.27 42.26 12.47L42.26 12.47L42.26 12.47Q42.60 12.67 42.96 12.67L42.96 12.67L42.96 12.67Q43.48 12.67 43.86 12.36L43.86 12.36L43.86 12.36Q44.24 12.04 44.32 11.52L44.32 11.52L44.32 11.52Q44.33 11.40 44.33 11.35L44.33 11.35L44.33 11.35Q44.33 11.06 44.18 10.85L44.18 10.85L44.18 10.85Q44.04 10.64 43.81 10.50L43.81 10.50L43.81 10.50Q43.59 10.36 43.18 10.15L43.18 10.15L43.18 10.15Q43.11 10.11 43.04 10.08L43.04 10.08L43.04 10.08Q42.98 10.04 42.92 10.01L42.92 10.01L42.92 10.01Q42.38 9.76 42.04 9.54L42.04 9.54L42.04 9.54Q41.69 9.31 41.46 8.95L41.46 8.95L41.46 8.95Q41.23 8.59 41.23 8.07L41.23 8.07L41.23 8.07Q41.23 7.92 41.25 7.76L41.25 7.76L41.25 7.76Q41.34 7.01 41.78 6.50L41.78 6.50L41.78 6.50Q42.21 5.98 42.84 5.73L42.84 5.73L42.84 5.73Q43.48 5.47 44.16 5.47L44.16 5.47L44.16 5.47Q44.77 5.47 45.29 5.67L45.29 5.67L45.29 5.67Q45.81 5.87 46.15 6.32L46.15 6.32L46.15 6.32Q46.50 6.77 46.55 7.50L46.55 7.50L45.30 7.76L45.30 7.76Q45.26 7.17 44.95 6.90L44.95 6.90L44.95 6.90Q44.64 6.64 44.18 6.64L44.18 6.64L44.18 6.64Q43.68 6.64 43.28 6.91L43.28 6.91L43.28 6.91Q42.88 7.19 42.80 7.74L42.80 7.74L42.80 7.74Q42.79 7.85 42.79 7.90L42.79 7.90L42.79 7.90Q42.79 8.18 42.94 8.39L42.94 8.39L42.94 8.39Q43.10 8.59 43.34 8.74L43.34 8.74L43.34 8.74Q43.58 8.88 44.00 9.08L44.00 9.08L44.19 9.18L44.19 9.18Q44.75 9.43 45.12 9.68L45.12 9.68L45.12 9.68Q45.49 9.94 45.72 10.33L45.72 10.33L45.72 10.33Q45.95 10.71 45.95 11.26L45.95 11.26L45.95 11.26Q45.95 11.42 45.93 11.60L45.93 11.60L45.93 11.60Q45.86 12.30 45.46 12.83L45.46 12.83L45.46 12.83Q45.06 13.36 44.43 13.65L44.43 13.65L44.43 13.65Q43.80 13.95 43.05 13.95L43.05 13.95ZM46.79 13.78L48.72 2.80L50.35 2.80L49.62 6.85L49.70 6.85L49.70 6.85Q50.11 6.18 50.64 5.83L50.64 5.83L50.64 5.83Q51.18 5.48 51.83 5.48L51.83 5.48L51.83 5.48Q52.42 5.48 52.85 5.73L52.85 5.73L52.85 5.73Q53.27 5.99 53.50 6.46L53.50 6.46L53.50 6.46Q53.73 6.93 53.73 7.57L53.73 7.57L53.73 7.57Q53.73 7.93 53.66 8.29L53.66 8.29L52.70 13.78L51.04 13.78L51.99 8.40L51.99 8.40Q52.06 8.05 52.06 7.79L52.06 7.79L52.06 7.79Q52.06 7.30 51.85 7.10L51.85 7.10L51.85 7.10Q51.64 6.89 51.22 6.89L51.22 6.89L51.22 6.89Q50.76 6.89 50.36 7.16L50.36 7.16L50.36 7.16Q49.96 7.42 49.68 7.91L49.68 7.91L49.68 7.91Q49.40 8.39 49.29 9.00L49.29 9.00L48.45 13.78L46.79 13.78ZM57.64 13.78L59.58 2.80L62.33 2.80L62.65 11.98L66.23 2.80L69.00 2.80L67.07 13.78L65.35 13.78L66.50 7.20L67.14 4.24L67.08 4.24L63.17 13.78L61.56 13.78L61.01 4.24L60.94 4.24L60.53 7.18L59.36 13.78L57.64 13.78ZM72.86 5.48L72.86 5.48Q74.02 5.48 74.69 6.01L74.69 6.01L74.69 6.01Q75.37 6.54 75.37 7.56L75.37 7.56L75.37 7.56Q75.37 7.88 75.31 8.18L75.31 8.18L74.32 13.78L72.90 13.78L73.04 12.56L72.94 12.56L72.94 12.56Q72.66 13.04 72.27 13.36L72.27 13.36L72.27 13.36Q71.89 13.67 71.48 13.82L71.48 13.82L71.48 13.82Q71.07 13.96 70.70 13.96L70.70 13.96L70.70 13.96Q70.13 13.96 69.71 13.75L69.71 13.75L69.71 13.75Q69.29 13.54 69.07 13.16L69.07 13.16L69.07 13.16Q68.84 12.77 68.84 12.26L68.84 12.26L68.84 12.26Q68.84 12.04 68.89 11.81L68.89 11.81L68.89 11.81Q69.02 11.06 69.41 10.51L69.41 10.51L69.41 10.51Q69.81 9.97 70.49 9.53L70.49 9.53L70.49 9.53Q71.74 8.76 73.70 8.48L73.70 8.48L73.76 8.17L73.76 8.17Q73.83 7.83 73.83 7.59L73.83 7.59L73.83 7.59Q73.83 7.15 73.60 6.96L73.60 6.96L73.60 6.96Q73.36 6.76 72.85 6.76L72.85 6.76L72.85 6.76Q71.66 6.76 70.93 8.02L70.93 8.02L69.77 7.31L69.77 7.31Q70.29 6.37 71.08 5.92L71.08 5.92L71.08 5.92Q71.87 5.48 72.86 5.48L72.86 5.48ZM71.20 12.67L71.20 12.67Q71.78 12.67 72.28 12.28L72.28 12.28L72.28 12.28Q72.79 11.90 73.19 11.30L73.19 11.30L73.48 9.67L73.48 9.67Q72.91 9.74 72.40 9.92L72.40 9.92L72.40 9.92Q71.89 10.10 71.50 10.37L71.50 10.37L71.50 10.37Q71.09 10.62 70.83 10.98L70.83 10.98L70.83 10.98Q70.57 11.34 70.50 11.76L70.50 11.76L70.50 11.76Q70.48 11.87 70.48 11.97L70.48 11.97L70.48 11.97Q70.48 12.30 70.68 12.48L70.68 12.48L70.68 12.48Q70.88 12.67 71.20 12.67L71.20 12.67ZM76.00 13.78L77.44 5.63L78.92 5.63L78.74 6.90L78.81 6.90L78.81 6.90Q79.50 5.50 80.53 5.50L80.53 5.50L80.53 5.50Q80.95 5.50 81.35 5.64L81.35 5.64L81.07 7.17L81.07 7.17Q80.83 7.10 80.60 7.10L80.60 7.10L80.49 7.10L80.49 7.10Q79.71 7.15 79.16 7.81L79.16 7.81L79.16 7.81Q78.61 8.46 78.39 9.67L78.39 9.67L77.67 13.78L76.00 13.78ZM82.91 13.78L82.91 13.78Q82.08 13.78 81.68 13.39L81.68 13.39L81.68 13.39Q81.29 13.00 81.29 12.22L81.29 12.22L81.29 12.22Q81.29 11.83 81.36 11.43L81.36 11.43L82.18 6.79L81.26 6.79L81.46 5.63L82.47 5.63L83.11 3.76L84.36 3.76L84.03 5.63L85.63 5.63L85.42 6.79L83.83 6.79L83.06 11.16L83.06 11.16Q82.99 11.60 82.99 11.85L82.99 11.85L82.99 11.85Q82.99 12.20 83.16 12.33L83.16 12.33L83.16 12.33Q83.32 12.46 83.73 12.46L83.73 12.46L84.33 12.46L84.10 13.78L82.91 13.78Z"></path></g><!----><g data-v-423bf9ae="" id="c3ca1b13-03dd-4db8-badd-fbb2945af2b0" transform="matrix(1.0227055019802518,0,0,1.0227055019802518,-8.417213495343383,-4.168857947487901)" stroke="none" fill="black"><style></style><path d="M60.41 26.464l.04-.26c.042-.271.083-.54.107-.812.07-.823.061-1.66-.027-2.493-.095-.897-.3-1.815-.61-2.728-.117-.353-.405-.517-.776-.443a5.94 5.94 0 0 0-.311.072c.12-.102.236-.208.352-.317.215-.206.256-.49.112-.78a12.933 12.933 0 0 0-3.287-4.177.978.978 0 0 0-.847-.222c-.05.009-.1.015-.151.022a3.431 3.431 0 0 0-.02-.153c-.032-.21-.11-.51-.418-.696a13.416 13.416 0 0 0-3.54-1.49c-.268-.069-.49-.011-.647.164-.068-.215-.254-.361-.512-.385-.148-.014-.296-.032-.443-.048-.307-.034-.614-.069-.921-.082-1.634-.064-3.21.153-4.687.659-.441.151-.668.344-.6.924.033.284.077.568.124.85a61.17 61.17 0 0 0-.199-.34 4.007 4.007 0 0 0-.38-.532c-.189-.225-.474-.28-.747-.137-2.568 1.35-4.482 3.387-5.69 6.055a.726.726 0 0 0-.01.643c-.2.065-.327.225-.42.506a12.702 12.702 0 0 0-.585 2.664 12.774 12.774 0 0 0 .217 3.98c.057.266.228.436.478.479-.315.236-.207.571-.17.69a12.804 12.804 0 0 0 1.702 3.444c.662.95 1.454 1.803 2.356 2.535.251.202.517.265.788.185.021.291.175.528.463.706 1.586.971 3.156 1.568 4.798 1.824a12.987 12.987 0 0 0 3.695.045 12.065 12.065 0 0 0 3.917-1.212c.387-.199.382-.501.345-.666a33.807 33.807 0 0 1-.035-.147c.275.32.663.358 1.013.1l.35-.256c.338-.247.689-.502 1.013-.784a12.597 12.597 0 0 0 3.788-5.777.761.761 0 0 0-.151-.76 3.344 3.344 0 0 0-.21-.215 4.17 4.17 0 0 0 .223-.059.69.69 0 0 0 .513-.576zm-1.023-.683l-.032.258c-.098.026-.198.05-.297.073-.118.028-.235.055-.351.088-.3.085-.5.264-.567.504-.066.24.014.493.227.718.165.173.352.313.531.45l.022.017a11.227 11.227 0 0 1-3.028 4.767c-.316.297-.675.572-1.022.836-.12.092-.24.184-.357.276l-.157-.216a104.05 104.05 0 0 0-.71-.976 16.65 16.65 0 0 0-.68-.865c-.138-.164-.355-.22-.44-.235a.54.54 0 0 0-.458.118.536.536 0 0 0-.181.432c.011.228.047.432.105.606.184.542.374 1.08.565 1.62l.177.504c-.527.24-1.079.441-1.645.603a10.912 10.912 0 0 1-3.608.423c-2.063-.108-3.949-.682-5.625-1.72.042-.127.066-.273.068-.423.005-.252-.087-.465-.258-.6a.737.737 0 0 0-.656-.112 8.97 8.97 0 0 0-.463.132 11.283 11.283 0 0 1-3.465-4.978l1.053-.408c.427-.166.854-.332 1.281-.503a.81.81 0 0 0 .357-.25.782.782 0 0 0 .162-.472c-.008-.276-.223-.481-.523-.499a2.849 2.849 0 0 0-.524.008c-.392.047-.784.099-1.175.15l-.74.096c-.13.017-.262.03-.392.044l-.01.001c-.282-.92-.172-3.866.291-5.313l.664.131c.3.059.553-.032.711-.257a.574.574 0 0 0-.063-.75 24.92 24.92 0 0 0-.7-.694c1.055-2.159 2.633-3.86 4.691-5.054.042.064.082.128.121.195l1.23 2.085c.068.113.153.256.289.36.148.112.368.235.58.166.19-.061.415-.271.449-.505.039-.274.036-.558-.008-.824-.086-.514-.185-1.024-.284-1.536l-.136-.727c-.009-.08-.018-.17-.021-.224.05-.019.133-.042.208-.064a12.467 12.467 0 0 1 4.16-.46c.164.01.325.027.492.043l.124.016c0 .06 0 .121-.005.18l-.145 2.166c-.007.105.002.213.01.319l.007.075c.024.325.17.52.432.581.343.08.6-.061.728-.393.14-.363.26-.733.377-1.103.124-.393.245-.789.367-1.193l.075-.25c.18.05.356.098.527.16.823.298 1.54.639 2.186 1.056.013.06.018.123.024.185.009.099.02.196.044.29a.817.817 0 0 0 .37.51.75.75 0 0 0 .566.075c.297-.082.508-.015.77.235 1.065 1.012 1.874 2.06 2.476 3.203l-.41.294c-.293.209-.587.419-.877.632-.346.255-.685.519-1.023.783l-.057.046c-.078.06-.147.137-.22.246a.612.612 0 0 0-.03.634.589.589 0 0 0 .53.297c.21-.004.429-.04.629-.106.497-.162.99-.331 1.485-.5l.71-.241.125-.04.07.316c.106.469.205.912.262 1.363.074.586.107 1.216.107 2.043 0 .355-.044.708-.092 1.082z"></path><path d="M51.182 21.18c-.19-.569-.53-.82-1.136-.836a1.033 1.033 0 0 1-.357-.074 4.441 4.441 0 0 0-1.898-.341 4.224 4.224 0 0 0-2.64 1.05c-.176.153-.22.165-.362.118-.262-.092-.522-.043-.702.13-.19.182-.255.476-.167.765.033.112.073.224.12.332.016.04.018.056-.004.1a4.277 4.277 0 0 0-.364 2.679c.14.75.45 1.41.922 1.97-.088.18-.166.367-.254.581-.111.27-.044.537.184.733.114.1.357.232.704.034a5.98 5.98 0 0 0 .552-.348 4.098 4.098 0 0 0 2.096.564c.184 0 .37-.012.559-.034 1.235-.147 2.25-.732 3.016-1.737.609-.8.925-1.71.916-2.635v-.01c-.049-1.08-.37-1.946-1.014-2.723a1.003 1.003 0 0 1-.171-.317zm-.132 3.914a3.159 3.159 0 0 1-1.585 2.037c-1.117.583-2.222.54-3.29-.125a.74.74 0 0 0-.453-.122c-.055-.238-.201-.406-.29-.507-.646-.746-.895-1.622-.739-2.603.051-.323.178-.654.303-.964.066-.164.13-.35.117-.545a.782.782 0 0 0 .435-.225 3.342 3.342 0 0 1 1.645-.908c.62-.138 1.233-.093 1.872.139.193.069.393.114.594.158.1.022.2.045.318.079.101.3.279.535.45.762.06.079.12.157.175.237.51.748.672 1.69.448 2.587zM43.898 43.014c-.368.047-1.034.302-1.369 1.482-.191.675-.235 1.53-.123 2.406.12.938.372 1.551.792 1.932.384.348.83.418 1.149.418.15 0 .273-.017.346-.025 1.956-.251 1.71-2.189 1.628-2.826-.112-.877-.37-1.693-.725-2.297-.622-1.06-1.327-1.133-1.698-1.09zm.616 4.806c-.285.037-.338-.012-.365-.037-.053-.048-.235-.267-.337-1.06-.162-1.26.097-2.06.27-2.274.22.164.672.873.833 2.132.15 1.169-.094 1.2-.401 1.24zM63.834 36.256c-.11.632-.448 2.556 1.496 2.897.155.028.3.04.437.04 1.558 0 1.852-1.674 1.955-2.256.304-1.74.024-3.718-1.312-3.954-1.336-.233-2.271 1.534-2.576 3.273zm2.491.436c-.203 1.162-.444 1.12-.75 1.065-.306-.054-.549-.096-.345-1.257.22-1.249.703-1.937.931-2.09.162.222.384 1.031.164 2.282zM90.46 50.88c-.405.499-1.64 2.013-.111 3.26.156.128.591.482 1.196.482.09 0 .184-.008.28-.025.558-.1 1.097-.489 1.694-1.221v-.001c1.116-1.37 1.838-3.232.788-4.09-1.055-.856-2.73.229-3.846 1.596zm1.96 1.6c-.505.62-.776.71-.848.722-.033.009-.108.02-.327-.16-.241-.196-.43-.352.315-1.266.8-.983 1.558-1.345 1.833-1.369.032.275-.171 1.09-.973 2.073zM13.46 34.167c-1.054-.627-1.716-.355-2.013-.137-.3.219-.76.763-.485 1.96.158.683.531 1.452 1.053 2.167.556.763 1.073 1.18 1.625 1.31.126.03.247.043.361.043.562 0 .982-.307 1.138-.42 1.592-1.162.442-2.74.063-3.26-.52-.714-1.14-1.305-1.742-1.663zm.843 3.778c-.23.167-.303.15-.336.143-.07-.017-.336-.121-.808-.767-.748-1.025-.907-1.85-.86-2.122.272.037 1.01.44 1.759 1.467.694.952.496 1.096.245 1.28z"></path><circle cx="54.118" cy="56.763" r=".975"></circle><circle cx="57.603" cy="58.328" r=".975"></circle><circle cx="54.774" cy="53.364" r=".975"></circle><circle cx="59.462" cy="61.864" r=".975"></circle><circle cx="54.509" cy="62.13" r=".975"></circle><path d="M69.981 20.146c2.108-1.584 3.44-4.075 3.566-6.663.039-.8-.026-1.65-.198-2.597-.49-2.692-1.7-4.906-3.404-6.236a.707.707 0 0 0-.613-.128c-1.65.428-3.143 1.532-4.437 3.28-1.393 1.884-2.652 6.136-1.09 9.693.471 1.073 1.544 2.562 2.787 3.292.293.173.574.25.848.293-.43 1.584-1.044 3.143-1.92 4.496a.71.71 0 0 0 1.189.772c1.09-1.681 1.798-3.62 2.266-5.547.393-.198.735-.45 1.006-.655zm-1.66-9.134c.005.061.365 4.262-.55 8.678a.891.891 0 0 1-.46-.124c-.82-.482-1.748-1.592-2.207-2.64-1.32-3.006-.226-6.718.93-8.28.701-.948 1.83-2.143 3.315-2.65 1.286 1.139 2.205 2.948 2.605 5.144.153.84.211 1.584.177 2.274v.001c-.1 2.061-1.123 4.045-2.745 5.382.672-4.097.368-7.675.346-7.914a.71.71 0 0 0-1.412.129zM26.837 24.328a.71.71 0 0 0-.037-.998L13.49 10.87a.71.71 0 0 0-.998.028 9.784 9.784 0 0 0-2.709 6.774c0 5.417 4.408 9.825 9.825 9.825a9.857 9.857 0 0 0 7.228-3.169zm-6.416-4.217c.74.688 2.275 2.114 2.444 2.279a.362.362 0 0 1 .033.24c-.022.098-.104.186-.242.266-.622.355-1.142.578-1.593.681-.064.015-.142.037-.231.063a6.65 6.65 0 0 1-.595.141s-.025-.043-.038-.169c-.008-.085-.015-.191-.022-.292a668.68 668.68 0 0 0-.09-3.038v-.07a2.5 2.5 0 0 0 .334-.101zm-1.919-2.608l1.374 1.287c-.091.026-.18.06-.278.063-.33.004-.58-.101-.794-.304a1.096 1.096 0 0 1-.302-1.046zm.163 2.6l.004.148c.006.768.027 2.248.096 3.207l.005.201a.362.362 0 0 1-.148.193c-.085.05-.206.056-.36.013-.692-.193-1.216-.406-1.603-.653a5.098 5.098 0 0 0-.209-.121c-.128-.071-.469-.262-.517-.322 0-.001.012-.05.092-.146.125-.15.284-.332.454-.524a74.196 74.196 0 0 0 1.943-2.114c.08.04.159.085.243.117zm-1.276-1.101c-.379.405-1.27 1.364-1.956 2.14-.183.19-.358.366-.501.5-.059.055-.1.082-.108.093-.119-.072-.311-.373-.386-.49a3.758 3.758 0 0 0-.132-.2c-.27-.373-.515-.884-.747-1.562-.052-.15-.055-.271-.008-.359.052-.098.152-.15.151-.155.047-.003.158-.007.306-.012l.157.002c.946 0 2.235-.06 2.946-.096l.197-.006c.024.05.054.097.081.145zm-2.874-4.22a.358.358 0 0 1 .098-.013c.066 0 .115.007.116.011.191.172 1.67 1.583 2.414 2.293-.034.123-.061.246-.076.372l-.053.003c-.82.023-2.302.066-3.015.091-.106 0-.216 0-.306-.004-.07-.003-.114-.01-.133-.01h-.007c-.032-.136.046-.484.077-.619.02-.09.038-.17.049-.236.076-.455.267-.988.585-1.63.071-.143.155-.23.25-.258zm-3.313 2.89c0-1.933.653-3.777 1.855-5.268l1.09 1.02c-.49.137-.9.475-1.153.987-.38.768-.613 1.43-.714 2.025l-.033.158c-.092.407-.254 1.149.135 1.73-.305.464-.365 1.038-.163 1.62.278.812.586 1.444.936 1.929l.088.134c.227.355.65 1 1.35 1.122.197.637.815 1.003 1.167 1.2l.14.08c.505.321 1.154.59 1.983.821.192.054.383.08.567.08.386 0 .746-.117 1.047-.344.247.143.513.205.77.205.373 0 .724-.102.96-.17l.155-.043c.586-.135 1.233-.407 1.977-.832.498-.285.813-.715.918-1.216l1.019.954a8.436 8.436 0 0 1-5.687 2.215c-4.635 0-8.407-3.771-8.407-8.407zM76.936 16.376c.04-.022.083-.036.124-.056-.01-.012-.019-.027-.035-.034-.054-.023-.13.048-.089.09zM84.893 11.173c.04-.023.084-.037.125-.057-.011-.012-.02-.027-.035-.034-.055-.023-.13.048-.09.09z"></path><path d="M95.06 20.547a.798.798 0 0 1 .429-.278c-.25-.187-.594-.159-.903-.122l-1.773.211.516-.563c-.486-.23-1.06-.096-1.574.061-.568.174-1.257.399-1.83.737.128-1.264.148-2.482.018-3.62.289-.864.517-1.75.73-2.635.066-.279.133-.56.15-.845a2.494 2.494 0 0 0-.554-1.713 7.694 7.694 0 0 0-1.427 1.706c-.181-1.212.32-2.528-.199-3.638-.372.354-.654.801-.814 1.289a45.813 45.813 0 0 0-.265-2.23.36.36 0 0 1-.412.052 5.356 5.356 0 0 0-1.049-1.824 2.655 2.655 0 0 1-.074 1.68c-.048.123-.106.247-.114.38-.006.116.027.231.06.343.138.467.284.932.438 1.394a2.194 2.194 0 0 0-1.395.184c.027.03.046.07.058.11.202.68.575 1.309 1.073 1.813.343.346.759.658.917 1.118a2.223 2.223 0 0 1-1.916-.544c-.101-.094-.22-.207-.356-.18-.253.052-.172.438-.018.645.662.893 1.547 1.59 2.422 2.276l.713.56c.247.193.455.405.657.62.046.568.06 1.154.037 1.76a38.27 38.27 0 0 0-.216-.411c-.283-.533-.63-1.09-1.182-1.256l-.02.897-1.224-1.542c-.214-.27-.462-.557-.796-.58.1.166.145.371.126.575a3 3 0 0 1-1.757-1.047c-.11.24-.003.513.112.736.356.69.805 1.317 1.33 1.86-.232.114-.49.158-.736.125-.088.2.063.413.224.533.752.563 1.892.422 2.517 1.144l-1.21.607c-.174.087-.381.234-.355.434.011.092 1.882.283 2.078.32.24.045.528.145.821.231a30.936 30.936 0 0 1-.635 2.899c-.262.08-.507.069-.71-.06.092-.214.212-.4.333-.518-.143-.142-.383.027-.6.193l-1.242.954.434-.916c-.298-.105-.71.287-1.084.686-.483.514-1.091 1.173-1.574 1.977-.16-1.777-.556-3.455-1.268-4.91.297-.88.528-1.781.744-2.684.066-.278.133-.559.15-.844a2.494 2.494 0 0 0-.554-1.713 7.695 7.695 0 0 0-1.426 1.706c-.182-1.212.32-2.528-.2-3.638-.371.354-.654.801-.814 1.289a45.74 45.74 0 0 0-.264-2.23.36.36 0 0 1-.412.052 5.358 5.358 0 0 0-1.05-1.824 2.655 2.655 0 0 1-.073 1.679c-.048.124-.106.248-.114.38-.007.117.026.232.06.344.137.467.283.932.437 1.394a2.195 2.195 0 0 0-1.395.184.29.29 0 0 1 .059.11c.202.68.574 1.308 1.073 1.813.342.346.758.658.917 1.118a2.223 2.223 0 0 1-1.917-.544c-.1-.094-.22-.207-.355-.18-.253.052-.172.438-.019.645.662.893 1.548 1.59 2.422 2.276l.714.56c.282.22.515.466.745.714.414.838.706 1.772.899 2.769a22.949 22.949 0 0 0-.626-1.1c-.371-.62-.822-1.27-1.513-1.479l.006 1.027-1.576-1.808c-.275-.316-.593-.654-1.01-.693.13.194.193.431.177.663a4.082 4.082 0 0 1-2.22-1.259c-.129.27.012.588.163.847a9.857 9.857 0 0 0 1.719 2.175 1.677 1.677 0 0 1-.91.117c-.104.227.092.476.296.62.955.67 2.368.548 3.169 1.396l-1.484.653c-.213.094-.465.255-.426.485.017.105 2.35.389 2.596.438.549.11 1.299.439 1.927.477.17 4.024-.776 8.515-1.643 11.682-1.727-.165-4.905-.129-7.533 1.807-2.373 1.747-3.723 4.618-4.01 8.529-.21 2.854-.768 6.143-1.36 9.627a399.63 399.63 0 0 0-.596 3.6h-4.625c.575-4.066-1.536-8.07-3.473-10.767-.308-.429-.449-1.08-.574-1.654-.177-.82-.362-1.67-1.114-1.949-.834-.308-1.665.185-2.545.708-.552.328-1.178.7-1.86.922-2.973.973-8.218 3.298-9.94 7.945-.55 1.487-.778 3.1-.71 4.795H34.91c.496-.496.985-1.024 1.472-1.635.91-1.147 1.572-2.317 2.022-3.58.82-2.296.95-4.786.394-7.612-.188-.955-.487-1.972-.916-3.107a17.446 17.446 0 0 0-1.74-3.466c-1.247-1.9-2.714-3.177-4.486-3.906-2.438-1.005-4.63-1.102-6.702-.301-.54.21-1.327.568-1.922 1.268-.38.45-.767.896-1.169 1.328a4.789 4.789 0 0 1-.345.328c-.077-.27-.148-.526-.225-.78a1.754 1.754 0 0 1-.01-.99c.095-.357.164-.722.23-1.085.076-.43-.07-.824-.422-1.138a.802.802 0 0 0-.67-.2.761.761 0 0 0-.536.398 1.29 1.29 0 0 0-.157.65c.065 1.218.232 2.288.51 3.272l.076.272a.695.695 0 0 1-.061-.014 37.93 37.93 0 0 1-.725-.2c-.277-.079-.555-.158-.835-.23a17.58 17.58 0 0 1-.372-.102c-.384-.108-.78-.22-1.191-.246-1.227-.075-2.444.22-3.63.879-1.436.798-2.647 1.982-3.605 3.522-.869 1.4-1.33 3.019-1.408 4.947-.092 2.281.286 4.606 1.126 6.91.448 1.23.973 2.311 1.602 3.307.335.528.725 1.028 1.138 1.511h-.792a.709.709 0 0 0-.71.71c0 2.678.377 5.28 1.072 7.771.005.014.006.03.011.043C15.9 86.047 30.342 96.543 47.51 96.543c20.213 0 36.657-14.548 36.657-32.429a.709.709 0 0 0-.709-.709h-3.88c1.643-2.65 3.21-5.148 4.8-7.19 2.411-3.094 3.335-6.127 2.747-9.015-.697-3.428-3.329-5.664-4.66-6.6a98.316 98.316 0 0 0 1.958-3.711c.716-1.016 1.504-1.996 2.347-2.842.362.237.844.41 1.158.598.16.096 1.59 1.104 1.652 1.054.136-.107.077-.322.006-.48l-.493-1.101c.866-.069 1.585.704 2.447.81.184.024.417-.016.473-.193a1.249 1.249 0 0 1-.445-.52 7.34 7.34 0 0 0 2.035-.342c.213-.068.45-.173.513-.386a3.038 3.038 0 0 1-1.855-.414.797.797 0 0 1 .43-.277c-.25-.187-.594-.159-.904-.122l-1.773.211.516-.563c-.486-.23-1.06-.096-1.573.061l-.29.092c.615-.403 1.25-.713 1.9-.897.047 0 .092-.006.142-.003l.673.047c.825.058 1.662.115 2.473-.047.189-.038.426-.21.312-.365-.062-.083-.183-.08-.286-.078a1.655 1.655 0 0 1-1.33-.657c.317-.175.703-.14 1.065-.16a3.247 3.247 0 0 0 1.497-.465.244.244 0 0 1 .077-.03 1.628 1.628 0 0 0-.668-.8c.316-.177.628-.361.938-.55a.76.76 0 0 0 .204-.16c.062-.077.092-.175.127-.267.152-.396.437-.74.797-.964a3.988 3.988 0 0 0-1.49.483.268.268 0 0 1-.2-.234c-.43.356-.85.722-1.26 1.099.155-.35.222-.737.194-1.118-.841.353-1.221 1.33-1.926 1.91a5.728 5.728 0 0 0 .064-1.655 1.856 1.856 0 0 0-1.161.669 3.678 3.678 0 0 0-.339.542c-.29.532-.57 1.071-.823 1.623-1.102.415-2.147 1.105-3.122 1.962 1.481-3.473 2.76-7.234 3.27-10.707.32.171.679.315.931.466.16.095 1.59 1.103 1.652 1.053.136-.107.077-.322.006-.48l-.493-1.101c.866-.068 1.586.704 2.447.81.184.024.417-.016.473-.193a1.248 1.248 0 0 1-.444-.519 7.338 7.338 0 0 0 2.035-.343c.212-.068.448-.172.513-.386a3.039 3.039 0 0 1-1.855-.413zM43.94 59.103c1.573-4.242 6.855-6.372 9.054-7.09.83-.273 1.526-.686 2.14-1.051.477-.282 1.115-.687 1.267-.637.102.113.212.623.285.96.147.674.329 1.512.808 2.18 1.814 2.527 3.8 6.271 3.188 9.94H43.319c-.068-1.528.132-2.976.622-4.302zm-31.61 2.171c-.629-.983-1.165-2.13-1.64-3.506a16.933 16.933 0 0 1-.934-5.39c-.014-1.626.214-2.896.715-3.994.866-1.9 2.177-3.316 3.898-4.21.805-.417 1.711-.63 2.692-.632.242 0 .498.076.768.157.09.028.18.055.27.078.268.073.535.152.802.23a26.6 26.6 0 0 0 1.193.33c.842.208 1.612-.012 2.222-.63.46-.467.99-1.014 1.471-1.597.45-.546 1.056-.93 1.91-1.21 1.897-.625 3.877-.414 6.047.647 1.251.611 2.3 1.594 3.3 3.092.897 1.346 1.598 2.918 2.2 4.94.557 2.092.72 4.066.483 5.866-.229 1.737-.828 3.324-1.779 4.715A15.451 15.451 0 0 1 33 63.405H14.113a11.458 11.458 0 0 1-1.784-2.13zM47.51 95.125c-16.19 0-29.863-9.657-33.975-22.769h67.95C77.371 85.468 63.698 95.125 47.51 95.125zm35.23-30.302a27.445 27.445 0 0 1-.85 6.115H13.13a27.445 27.445 0 0 1-.85-6.115h70.46zm2.998-17.33c.498 2.461-.336 5.103-2.476 7.85-1.745 2.24-3.43 4.96-5.215 7.842l-.137.22h-9.73c.182-1.123.368-2.248.557-3.363.598-3.517 1.162-6.839 1.377-9.76.255-3.475 1.408-5.994 3.428-7.485 2.114-1.563 4.742-1.67 6.301-1.56a53.052 53.052 0 0 1-.75 2.32l-.077.126a2.704 2.704 0 0 1-.498-.505.707.707 0 1 0-1.179.786c.052.078 1.146 1.693 3.201 1.693.281 0 .58-.03.897-.098a.708.708 0 1 0-.3-1.385c-.276.06-.525.062-.76.044l.056-.128c.335-.546.792-1.309 1.329-2.244 1.187.865 3.404 2.813 3.976 5.647zm.188-17.454l-.101-.555c-.037-.2-.085-.413-.235-.406.008.126-.019.288-.074.453-.286-.05-.49-.302-.572-.709-.107.202-.12.413-.12.584.006.527.069.998.186 1.394-.134.11-.264.164-.37.156a.45.45 0 0 0-.02.412c.135.244.4.261.613.365-.135.315-.27.628-.408.939l-.005.004c-.1.083-.23.217-.265.376-.003.014.032.026.083.036-.5 1.11-1.011 2.18-1.517 3.191-.286.41-.56.822-.821 1.232.63-2.819 1.13-6.136 1.01-9.262.168.065.346.105.47.183.096.06.926.79.976.702.108-.19.1-.44.074-.614l-.177-1.21c.602-.42.981.284 1.555.087.122-.042.287-.183.351-.429-.113-.087-.193-.259-.228-.488.377-.23.762-.56 1.146-.938a50.89 50.89 0 0 1-1.55 4.497z"></path><path d="M95.237 29.818c-.016-.006-.031-.002-.047.001.013.033.04.06.05.093.045-.003.038-.08-.003-.094z"></path></g><!----><g data-v-423bf9ae="" id="25d6fcb6-f90c-4d0f-ae37-132366f02787" fill="black" transform="matrix(1.1890978247432438,0,0,1.1890978247432438,109.61727281754298,55.49332112228343)"><path d="M7.81 9.52C7.39 9.11 6.79 8.86 6.01 8.75C6.33 8.67 6.61 8.55 6.86 8.40C7.11 8.25 7.34 8.08 7.50 7.87C7.67 7.66 7.81 7.43 7.90 7.20C7.98 6.96 8.04 6.71 8.04 6.44C8.04 6.05 7.95 5.68 7.83 5.38C7.70 5.07 7.49 4.80 7.22 4.58C6.96 4.37 6.62 4.20 6.20 4.09C5.78 3.98 5.29 3.92 4.73 3.92L1.89 3.92L0.70 3.92L0.70 4.19C0.70 4.34 0.80 4.42 0.98 4.44L1.12 4.44C1.19 4.44 1.29 4.45 1.43 4.45C1.57 4.45 1.72 4.47 1.89 4.47L1.89 13.26C1.72 13.26 1.57 13.27 1.43 13.27C1.29 13.27 1.19 13.29 1.12 13.29L0.98 13.29C0.80 13.30 0.71 13.38 0.71 13.54L0.71 13.82L1.89 13.82L5.10 13.82C5.63 13.82 6.09 13.76 6.51 13.64C6.93 13.51 7.28 13.34 7.56 13.10C7.84 12.87 8.06 12.59 8.22 12.25C8.37 11.91 8.44 11.54 8.44 11.12C8.44 10.46 8.23 9.93 7.81 9.52ZM2.60 4.48L4.73 4.48C5.61 4.48 6.27 4.66 6.69 5.00C7.11 5.35 7.32 5.84 7.32 6.51C7.32 6.76 7.28 7.03 7.18 7.27C7.08 7.50 6.93 7.71 6.72 7.91C6.51 8.11 6.24 8.26 5.92 8.37C5.60 8.48 5.21 8.55 4.75 8.55L2.60 8.55ZM7.06 12.68C6.61 13.06 5.95 13.24 5.08 13.24L2.60 13.24L2.60 9.07L5.10 9.07C5.52 9.07 5.88 9.11 6.20 9.21C6.52 9.31 6.80 9.45 7.03 9.62C7.25 9.80 7.42 10.00 7.55 10.25C7.66 10.50 7.73 10.79 7.73 11.10C7.73 11.79 7.50 12.31 7.06 12.68ZM24.95 3.92L24.23 3.92L22.88 3.92L22.88 4.19C22.88 4.34 22.97 4.42 23.16 4.44L23.32 4.44C23.42 4.44 23.56 4.45 23.73 4.45C23.90 4.45 24.07 4.47 24.23 4.47L24.23 10.04C24.23 10.50 24.16 10.92 24.02 11.33C23.88 11.73 23.69 12.08 23.42 12.38C23.16 12.67 22.85 12.89 22.47 13.06C22.09 13.23 21.67 13.31 21.20 13.31C20.72 13.31 20.29 13.23 19.91 13.06C19.53 12.89 19.21 12.66 18.96 12.36C18.69 12.07 18.51 11.72 18.37 11.33C18.23 10.93 18.16 10.50 18.16 10.04L18.16 4.47C18.33 4.47 18.49 4.45 18.66 4.45C18.83 4.45 18.97 4.44 19.07 4.44L19.24 4.44C19.42 4.42 19.52 4.34 19.52 4.19L19.52 3.92L18.16 3.92L17.44 3.92L16.27 3.92L16.27 4.19C16.27 4.34 16.35 4.42 16.53 4.44L16.67 4.44C16.74 4.44 16.84 4.45 16.98 4.45C17.12 4.45 17.28 4.47 17.44 4.47L17.44 10.04C17.44 10.58 17.53 11.09 17.70 11.56C17.86 12.04 18.12 12.46 18.44 12.81C18.76 13.16 19.17 13.44 19.63 13.64C20.09 13.83 20.62 13.93 21.20 13.93C21.77 13.93 22.29 13.83 22.75 13.64C23.21 13.44 23.62 13.16 23.94 12.81C24.26 12.46 24.51 12.04 24.68 11.56C24.85 11.09 24.95 10.58 24.95 10.04L24.95 4.47C25.12 4.47 25.26 4.45 25.40 4.45C25.54 4.45 25.65 4.44 25.72 4.44L25.84 4.44C26.03 4.42 26.12 4.34 26.12 4.19L26.12 3.92ZM42.28 3.92L42.21 3.92L41.65 3.92L41.54 3.92L40.14 3.92L40.14 4.19C40.14 4.34 40.24 4.42 40.42 4.44L40.53 4.44C40.59 4.44 40.66 4.45 40.77 4.45C40.88 4.45 41.01 4.47 41.15 4.47L38.56 8.64C38.49 8.75 38.43 8.85 38.39 8.95C38.35 9.04 38.30 9.16 38.26 9.25C38.22 9.16 38.18 9.04 38.14 8.95C38.09 8.85 38.04 8.75 37.97 8.64L35.36 4.47C35.50 4.47 35.63 4.45 35.74 4.45C35.85 4.45 35.94 4.44 35.99 4.44L36.09 4.44C36.27 4.42 36.37 4.34 36.37 4.19L36.37 3.92L34.97 3.92L34.86 3.92L34.30 3.92L34.23 3.92L33.78 3.92L33.78 4.19C33.78 4.34 33.88 4.42 34.06 4.44C34.30 4.45 34.48 4.47 34.58 4.47L37.90 9.73L37.90 13.26C37.73 13.26 37.58 13.27 37.44 13.27C37.30 13.27 37.20 13.29 37.13 13.29L37.00 13.29C36.82 13.30 36.72 13.38 36.72 13.54L36.72 13.82L37.90 13.82L38.61 13.82L39.79 13.82L39.79 13.54C39.79 13.38 39.70 13.30 39.52 13.29L39.38 13.29C39.31 13.29 39.21 13.27 39.07 13.27C38.93 13.27 38.78 13.26 38.61 13.26L38.61 9.73L41.93 4.47C42.04 4.47 42.21 4.45 42.45 4.44C42.63 4.42 42.73 4.34 42.73 4.19L42.73 3.92ZM68.26 3.92L67.91 3.92L62.33 3.92L61.14 3.92L61.14 4.19C61.14 4.34 61.24 4.42 61.42 4.44L61.56 4.44C61.63 4.44 61.73 4.45 61.87 4.45C62.01 4.45 62.16 4.47 62.33 4.47L62.33 13.26C62.16 13.26 62.01 13.27 61.87 13.27C61.73 13.27 61.63 13.29 61.56 13.29L61.42 13.29C61.24 13.30 61.14 13.38 61.14 13.54L61.14 13.82L62.33 13.82L63.04 13.82L64.22 13.82L64.22 13.54C64.22 13.38 64.13 13.30 63.95 13.29L63.81 13.29C63.74 13.29 63.64 13.27 63.50 13.27C63.36 13.27 63.21 13.26 63.04 13.26L63.04 9.27L66.74 9.27L66.74 8.67L63.04 8.67L63.04 4.51L67.65 4.51C67.68 5.18 67.70 5.56 67.70 5.63C67.72 5.85 67.82 5.96 68.01 5.96L68.35 5.96L68.35 3.92ZM84.46 13.29L84.36 13.29L84.18 13.29C84.10 13.29 84.01 13.27 83.93 13.27L80.96 9.53C80.88 9.42 80.77 9.32 80.65 9.25C81.09 9.21 81.48 9.11 81.83 8.96C82.18 8.81 82.46 8.61 82.71 8.37C82.95 8.13 83.15 7.85 83.27 7.55C83.40 7.24 83.47 6.89 83.47 6.51C83.47 5.66 83.19 5.03 82.63 4.58C82.07 4.14 81.21 3.92 80.07 3.92L77.66 3.92L76.48 3.92L76.48 4.19C76.48 4.34 76.57 4.42 76.75 4.44L76.89 4.44C76.96 4.44 77.06 4.45 77.20 4.45C77.34 4.45 77.49 4.47 77.66 4.47L77.66 13.26C77.49 13.26 77.34 13.27 77.20 13.27C77.06 13.27 76.96 13.29 76.89 13.29L76.75 13.29C76.57 13.30 76.47 13.38 76.47 13.54L76.47 13.82L77.66 13.82L78.37 13.82L79.55 13.82L79.55 13.54C79.55 13.38 79.45 13.30 79.27 13.29L79.13 13.29C79.06 13.29 78.96 13.27 78.82 13.27C78.68 13.27 78.54 13.26 78.37 13.26L78.37 9.34L79.55 9.34C79.74 9.34 79.88 9.35 79.97 9.39C80.05 9.44 80.14 9.52 80.22 9.62L83.40 13.64C83.45 13.71 83.50 13.75 83.55 13.78C83.61 13.80 83.68 13.82 83.75 13.82L83.82 13.82L84.36 13.82L84.73 13.82L84.73 13.54C84.73 13.38 84.64 13.30 84.46 13.29ZM79.97 8.81L78.37 8.81L78.37 4.48L80.07 4.48C80.95 4.48 81.62 4.66 82.08 5.00C82.54 5.33 82.77 5.87 82.77 6.57C82.77 6.92 82.71 7.21 82.59 7.49C82.46 7.77 82.26 7.99 82.03 8.19C81.79 8.39 81.49 8.55 81.14 8.65C80.79 8.75 80.40 8.81 79.97 8.81ZM94.12 3.92L92.93 3.92L92.93 4.19C92.93 4.34 93.03 4.42 93.21 4.44L93.35 4.44C93.42 4.44 93.52 4.45 93.66 4.45C93.80 4.45 93.95 4.47 94.12 4.47L94.12 13.26C93.95 13.26 93.80 13.27 93.66 13.27C93.52 13.27 93.42 13.29 93.35 13.29L93.21 13.29C93.03 13.30 92.95 13.38 92.95 13.54L92.95 13.82L94.12 13.82L100.06 13.82L100.06 13.22L100.06 11.76L99.71 11.76C99.51 11.76 99.43 11.89 99.41 12.11C99.41 12.14 99.40 12.19 99.40 12.29C99.40 12.39 99.40 12.53 99.39 12.74C99.37 12.95 99.36 13.09 99.36 13.22L94.84 13.22L94.84 9.09L98.78 9.09L98.78 8.51L94.84 8.51L94.84 4.51L99.36 4.51C99.39 5.12 99.41 5.50 99.41 5.63C99.43 5.85 99.51 5.96 99.71 5.96L100.06 5.96L100.06 4.51L100.06 3.92ZM114.37 9.91C114.23 9.65 114.03 9.39 113.79 9.21C113.55 9.03 113.30 8.88 113.01 8.75C112.71 8.62 112.39 8.51 112.08 8.41C111.78 8.32 111.47 8.20 111.17 8.11C110.88 7.99 110.61 7.87 110.38 7.71C110.14 7.56 109.96 7.38 109.82 7.15C109.68 6.93 109.59 6.65 109.59 6.31C109.59 6.06 109.65 5.82 109.75 5.59C109.84 5.35 109.98 5.15 110.17 4.97C110.35 4.79 110.57 4.65 110.85 4.55C111.13 4.45 111.44 4.40 111.80 4.40C112.48 4.40 113.09 4.51 113.65 4.75C113.69 5.54 113.72 5.99 113.72 6.06C113.74 6.29 113.82 6.41 114.02 6.41L114.35 6.41L114.35 4.38C113.47 4.00 112.63 3.81 111.80 3.81C111.34 3.81 110.94 3.88 110.57 4.02C110.21 4.16 109.91 4.34 109.68 4.58C109.44 4.82 109.24 5.08 109.12 5.39C108.99 5.70 108.93 6.02 108.93 6.36C108.93 6.78 109.00 7.14 109.14 7.42C109.28 7.70 109.48 7.92 109.72 8.12C109.96 8.32 110.21 8.46 110.50 8.58C110.80 8.71 111.12 8.82 111.43 8.92C111.73 9.02 112.03 9.11 112.34 9.21C112.63 9.31 112.90 9.45 113.13 9.60C113.37 9.76 113.55 9.94 113.69 10.16C113.83 10.39 113.90 10.68 113.90 11.03C113.90 11.35 113.85 11.66 113.74 11.94C113.62 12.22 113.47 12.46 113.26 12.67C113.05 12.88 112.78 13.05 112.48 13.16C112.17 13.29 111.82 13.33 111.43 13.33C110.64 13.33 109.98 13.20 109.45 12.95C109.44 12.75 109.44 12.54 109.42 12.32C109.41 12.10 109.41 11.91 109.40 11.76C109.38 11.61 109.38 11.52 109.38 11.51C109.37 11.28 109.27 11.17 109.07 11.17L108.74 11.17L108.74 13.02L108.74 13.20L108.74 13.38C109.59 13.75 110.47 13.93 111.40 13.93C111.90 13.93 112.35 13.85 112.74 13.69C113.13 13.54 113.47 13.31 113.74 13.05C114.00 12.78 114.23 12.46 114.37 12.10C114.51 11.73 114.58 11.34 114.58 10.92C114.58 10.51 114.51 10.18 114.37 9.91ZM132.57 4.44C132.75 4.42 132.85 4.34 132.85 4.19L132.85 3.92L131.67 3.92L130.94 3.92L129.77 3.92L129.77 4.19C129.77 4.34 129.86 4.42 130.05 4.44L130.17 4.44C130.24 4.44 130.35 4.45 130.49 4.45C130.63 4.45 130.77 4.47 130.94 4.47L130.94 8.53L124.74 8.53L124.74 4.47C124.91 4.47 125.06 4.45 125.20 4.45C125.34 4.45 125.44 4.44 125.51 4.44L125.65 4.44C125.83 4.42 125.92 4.34 125.92 4.19L125.92 3.92L124.74 3.92L124.03 3.92L122.84 3.92L122.84 4.19C122.84 4.34 122.93 4.42 123.12 4.44L123.26 4.44C123.33 4.44 123.42 4.45 123.56 4.45C123.70 4.45 123.86 4.47 124.03 4.47L124.03 13.26C123.86 13.26 123.70 13.27 123.56 13.27C123.42 13.27 123.33 13.29 123.26 13.29L123.12 13.29C122.93 13.30 122.84 13.38 122.84 13.54L122.84 13.82L124.03 13.82L124.74 13.82L125.92 13.82L125.92 13.54C125.92 13.38 125.83 13.30 125.65 13.29L125.51 13.29C125.44 13.29 125.34 13.27 125.20 13.27C125.06 13.27 124.91 13.26 124.74 13.26L124.74 9.07L130.94 9.07L130.94 13.26C130.77 13.26 130.63 13.27 130.49 13.27C130.35 13.27 130.24 13.29 130.17 13.29L130.05 13.29C129.86 13.30 129.77 13.38 129.77 13.54L129.77 13.82L130.94 13.82L131.67 13.82L132.85 13.82L132.85 13.54C132.85 13.38 132.75 13.30 132.57 13.29L132.44 13.29C132.37 13.29 132.26 13.27 132.12 13.27C131.98 13.27 131.84 13.26 131.67 13.26L131.67 4.47C131.84 4.47 131.98 4.45 132.12 4.45C132.26 4.45 132.37 4.44 132.44 4.44ZM155.29 3.79C154.91 3.79 154.57 3.86 154.27 3.98C153.96 4.09 153.69 4.26 153.47 4.47C153.24 4.68 153.08 4.90 152.96 5.18C152.85 5.46 152.80 5.77 152.80 6.09C152.80 6.50 152.87 6.87 153.03 7.22C153.20 7.57 153.44 7.92 153.78 8.30C153.44 8.43 153.15 8.61 152.85 8.81C152.56 9.00 152.31 9.23 152.10 9.48C151.89 9.73 151.72 10.01 151.59 10.32C151.47 10.63 151.42 10.95 151.42 11.28C151.42 11.70 151.49 12.07 151.66 12.40C151.83 12.74 152.05 13.02 152.32 13.24C152.59 13.47 152.89 13.65 153.23 13.76C153.57 13.87 153.92 13.93 154.27 13.93C154.63 13.93 154.98 13.89 155.32 13.80C155.65 13.72 155.97 13.59 156.27 13.45C156.56 13.31 156.83 13.13 157.08 12.92C157.33 12.71 157.57 12.49 157.78 12.25L159.21 13.66C159.28 13.73 159.33 13.78 159.39 13.79C159.45 13.80 159.52 13.82 159.60 13.82L160.22 13.82L158.14 11.77C158.44 11.35 158.65 10.91 158.80 10.44C158.96 9.98 159.04 9.52 159.05 9.09L158.68 9.09C158.62 9.09 158.56 9.11 158.54 9.14C158.51 9.17 158.49 9.23 158.48 9.28C158.44 9.62 158.37 9.97 158.24 10.33C158.12 10.70 157.95 11.05 157.74 11.38L154.62 8.30C154.21 7.90 153.90 7.53 153.71 7.18C153.51 6.83 153.41 6.45 153.41 6.08C153.41 5.82 153.47 5.59 153.55 5.38C153.64 5.17 153.76 4.97 153.93 4.82C154.10 4.66 154.29 4.54 154.52 4.45C154.74 4.37 155.01 4.33 155.29 4.33C155.57 4.33 155.79 4.37 156.00 4.47C156.20 4.56 156.37 4.69 156.51 4.83C156.65 4.97 156.74 5.12 156.83 5.28C156.91 5.43 156.97 5.57 157.00 5.70C157.01 5.75 157.04 5.78 157.07 5.81C157.09 5.84 157.14 5.85 157.18 5.85C157.23 5.85 157.32 5.85 157.43 5.82C157.49 5.81 157.53 5.80 157.60 5.78C157.58 5.52 157.53 5.26 157.40 5.03C157.28 4.79 157.12 4.58 156.91 4.40C156.70 4.21 156.45 4.07 156.17 3.96C155.89 3.85 155.60 3.79 155.29 3.79ZM152.10 11.24C152.10 10.96 152.14 10.70 152.24 10.44C152.33 10.19 152.46 9.95 152.63 9.73C152.80 9.51 153.02 9.30 153.27 9.11C153.52 8.93 153.79 8.78 154.10 8.65C154.13 8.68 154.15 8.69 154.18 8.72L157.39 11.89C157.21 12.11 157.02 12.31 156.81 12.49C156.60 12.67 156.37 12.82 156.11 12.96C155.86 13.10 155.58 13.20 155.29 13.27C154.99 13.34 154.69 13.38 154.36 13.38C154.10 13.38 153.83 13.33 153.57 13.24C153.30 13.16 153.06 13.03 152.84 12.85C152.61 12.67 152.45 12.45 152.31 12.18C152.17 11.91 152.10 11.61 152.10 11.24ZM179.82 3.92L178.63 3.92L178.63 4.19C178.63 4.34 178.72 4.42 178.91 4.44L179.05 4.44C179.12 4.44 179.21 4.45 179.35 4.45C179.49 4.45 179.65 4.47 179.82 4.47L179.82 13.26C179.65 13.26 179.49 13.27 179.35 13.27C179.21 13.27 179.12 13.29 179.05 13.29L178.91 13.29C178.72 13.30 178.64 13.38 178.64 13.54L178.64 13.82L179.82 13.82L185.75 13.82L185.75 13.22L185.75 11.76L185.40 11.76C185.21 11.76 185.12 11.89 185.11 12.11C185.11 12.14 185.09 12.19 185.09 12.29C185.09 12.39 185.09 12.53 185.08 12.74C185.07 12.95 185.05 13.09 185.05 13.22L180.53 13.22L180.53 9.09L184.48 9.09L184.48 8.51L180.53 8.51L180.53 4.51L185.05 4.51C185.08 5.12 185.11 5.50 185.11 5.63C185.12 5.85 185.21 5.96 185.40 5.96L185.75 5.96L185.75 4.51L185.75 3.92ZM203.63 13.22L203.17 13.17L199.39 3.91L198.67 3.91L194.88 13.17L194.43 13.22C194.25 13.23 194.17 13.33 194.17 13.50L194.17 13.82L194.61 13.82L194.91 13.82L195.16 13.82L195.26 13.82L196.57 13.82L196.57 13.50C196.57 13.31 196.46 13.23 196.25 13.22C196.24 13.22 196.21 13.20 196.17 13.20C196.13 13.20 196.07 13.19 195.97 13.19C195.87 13.19 195.75 13.19 195.61 13.17L196.59 10.75L196.66 10.57L201.39 10.57L201.46 10.75L202.44 13.17C202.30 13.19 202.19 13.19 202.09 13.19C201.99 13.19 201.92 13.20 201.88 13.20C201.84 13.20 201.81 13.22 201.80 13.22C201.59 13.23 201.47 13.31 201.47 13.50L201.47 13.82L202.79 13.82L202.89 13.82L203.15 13.82L203.43 13.82L203.90 13.82L203.90 13.50C203.90 13.33 203.81 13.23 203.63 13.22ZM198.83 5.22C198.86 5.14 198.90 5.04 198.93 4.94C198.95 4.84 199.00 4.75 199.02 4.63C199.05 4.75 199.09 4.84 199.12 4.94C199.15 5.04 199.19 5.12 199.22 5.21L201.18 10.04L196.88 10.04ZM218.55 3.92L218.36 3.92L211.06 3.92L210.85 3.92L210.76 3.92L210.76 5.96L211.11 5.96C211.30 5.96 211.39 5.85 211.40 5.63C211.40 5.53 211.43 5.17 211.46 4.52L214.35 4.52L214.35 13.26C214.19 13.26 214.05 13.27 213.91 13.27C213.77 13.27 213.65 13.29 213.58 13.29L213.46 13.29C213.28 13.30 213.18 13.38 213.18 13.54L213.18 13.82L214.35 13.82L215.07 13.82L216.26 13.82L216.26 13.54C216.26 13.38 216.16 13.30 215.98 13.29L215.84 13.29C215.77 13.29 215.67 13.27 215.53 13.27C215.39 13.27 215.24 13.26 215.07 13.26L215.07 4.52L217.95 4.52C217.99 5.24 218.01 5.60 218.01 5.63C218.02 5.85 218.12 5.96 218.32 5.96L218.65 5.96L218.65 3.92ZM244.26 3.92L243.91 3.92L238.32 3.92L237.13 3.92L237.13 4.19C237.13 4.34 237.23 4.42 237.41 4.44L237.55 4.44C237.62 4.44 237.72 4.45 237.86 4.45C238 4.45 238.15 4.47 238.32 4.47L238.32 13.26C238.15 13.26 238 13.27 237.86 13.27C237.72 13.27 237.62 13.29 237.55 13.29L237.41 13.29C237.23 13.30 237.13 13.38 237.13 13.54L237.13 13.82L238.32 13.82L239.04 13.82L240.21 13.82L240.21 13.54C240.21 13.38 240.13 13.30 239.95 13.29L239.81 13.29C239.74 13.29 239.64 13.27 239.50 13.27C239.36 13.27 239.20 13.26 239.04 13.26L239.04 9.27L242.73 9.27L242.73 8.67L239.04 8.67L239.04 4.51L243.64 4.51C243.67 5.18 243.70 5.56 243.70 5.63C243.71 5.85 243.81 5.96 244.01 5.96L244.34 5.96L244.34 3.92ZM260.46 13.29L260.36 13.29L260.18 13.29C260.09 13.29 260.01 13.27 259.92 13.27L256.96 9.53C256.87 9.42 256.76 9.32 256.65 9.25C257.08 9.21 257.47 9.11 257.82 8.96C258.17 8.81 258.45 8.61 258.71 8.37C258.94 8.13 259.14 7.85 259.27 7.55C259.39 7.24 259.46 6.89 259.46 6.51C259.46 5.66 259.18 5.03 258.62 4.58C258.06 4.14 257.21 3.92 256.06 3.92L253.65 3.92L252.48 3.92L252.48 4.19C252.48 4.34 252.56 4.42 252.74 4.44L252.88 4.44C252.95 4.44 253.05 4.45 253.19 4.45C253.33 4.45 253.48 4.47 253.65 4.47L253.65 13.26C253.48 13.26 253.33 13.27 253.19 13.27C253.05 13.27 252.95 13.29 252.88 13.29L252.74 13.29C252.56 13.30 252.46 13.38 252.46 13.54L252.46 13.82L253.65 13.82L254.37 13.82L255.54 13.82L255.54 13.54C255.54 13.38 255.44 13.30 255.26 13.29L255.12 13.29C255.05 13.29 254.95 13.27 254.81 13.27C254.67 13.27 254.53 13.26 254.37 13.26L254.37 9.34L255.54 9.34C255.74 9.34 255.88 9.35 255.96 9.39C256.05 9.44 256.13 9.52 256.21 9.62L259.39 13.64C259.45 13.71 259.49 13.75 259.55 13.78C259.60 13.80 259.67 13.82 259.74 13.82L259.81 13.82L260.36 13.82L260.72 13.82L260.72 13.54C260.72 13.38 260.64 13.30 260.46 13.29ZM255.96 8.81L254.37 8.81L254.37 4.48L256.06 4.48C256.94 4.48 257.61 4.66 258.08 5.00C258.54 5.33 258.76 5.87 258.76 6.57C258.76 6.92 258.71 7.21 258.58 7.49C258.45 7.77 258.26 7.99 258.02 8.19C257.78 8.39 257.49 8.55 257.14 8.65C256.79 8.75 256.40 8.81 255.96 8.81ZM270.12 3.92L268.93 3.92L268.93 4.19C268.93 4.34 269.02 4.42 269.21 4.44L269.35 4.44C269.42 4.44 269.51 4.45 269.65 4.45C269.79 4.45 269.95 4.47 270.12 4.47L270.12 13.26C269.95 13.26 269.79 13.27 269.65 13.27C269.51 13.27 269.42 13.29 269.35 13.29L269.21 13.29C269.02 13.30 268.94 13.38 268.94 13.54L268.94 13.82L270.12 13.82L276.05 13.82L276.05 13.22L276.05 11.76L275.70 11.76C275.51 11.76 275.42 11.89 275.41 12.11C275.41 12.14 275.39 12.19 275.39 12.29C275.39 12.39 275.39 12.53 275.38 12.74C275.37 12.95 275.35 13.09 275.35 13.22L270.83 13.22L270.83 9.09L274.78 9.09L274.78 8.51L270.83 8.51L270.83 4.51L275.35 4.51C275.38 5.12 275.41 5.50 275.41 5.63C275.42 5.85 275.51 5.96 275.70 5.96L276.05 5.96L276.05 4.51L276.05 3.92ZM290.36 9.91C290.22 9.65 290.02 9.39 289.79 9.21C289.55 9.03 289.30 8.88 289.00 8.75C288.71 8.62 288.39 8.51 288.08 8.41C287.77 8.32 287.46 8.20 287.17 8.11C286.87 7.99 286.61 7.87 286.37 7.71C286.13 7.56 285.95 7.38 285.81 7.15C285.67 6.93 285.59 6.65 285.59 6.31C285.59 6.06 285.64 5.82 285.74 5.59C285.84 5.35 285.98 5.15 286.16 4.97C286.34 4.79 286.57 4.65 286.85 4.55C287.13 4.45 287.43 4.40 287.80 4.40C288.47 4.40 289.09 4.51 289.65 4.75C289.69 5.54 289.72 5.99 289.72 6.06C289.73 6.29 289.81 6.41 290.01 6.41L290.35 6.41L290.35 4.38C289.46 4.00 288.62 3.81 287.80 3.81C287.34 3.81 286.93 3.88 286.57 4.02C286.20 4.16 285.91 4.34 285.67 4.58C285.43 4.82 285.24 5.08 285.11 5.39C284.98 5.70 284.93 6.02 284.93 6.36C284.93 6.78 285.00 7.14 285.14 7.42C285.28 7.70 285.47 7.92 285.71 8.12C285.95 8.32 286.20 8.46 286.50 8.58C286.79 8.71 287.11 8.82 287.42 8.92C287.73 9.02 288.02 9.11 288.33 9.21C288.62 9.31 288.89 9.45 289.13 9.60C289.37 9.76 289.55 9.94 289.69 10.16C289.83 10.39 289.90 10.68 289.90 11.03C289.90 11.35 289.84 11.66 289.73 11.94C289.62 12.22 289.46 12.46 289.25 12.67C289.04 12.88 288.78 13.05 288.47 13.16C288.16 13.29 287.81 13.33 287.42 13.33C286.64 13.33 285.98 13.20 285.45 12.95C285.43 12.75 285.43 12.54 285.42 12.32C285.40 12.10 285.40 11.91 285.39 11.76C285.38 11.61 285.38 11.52 285.38 11.51C285.36 11.28 285.26 11.17 285.07 11.17L284.73 11.17L284.73 13.02L284.73 13.20L284.73 13.38C285.59 13.75 286.47 13.93 287.39 13.93C287.90 13.93 288.34 13.85 288.74 13.69C289.13 13.54 289.46 13.31 289.73 13.05C290.00 12.78 290.22 12.46 290.36 12.10C290.50 11.73 290.57 11.34 290.57 10.92C290.57 10.51 290.50 10.18 290.36 9.91ZM308.56 4.44C308.74 4.42 308.84 4.34 308.84 4.19L308.84 3.92L307.66 3.92L306.94 3.92L305.76 3.92L305.76 4.19C305.76 4.34 305.86 4.42 306.04 4.44L306.17 4.44C306.24 4.44 306.35 4.45 306.49 4.45C306.63 4.45 306.77 4.47 306.94 4.47L306.94 8.53L300.73 8.53L300.73 4.47C300.90 4.47 301.06 4.45 301.20 4.45C301.34 4.45 301.43 4.44 301.50 4.44L301.64 4.44C301.83 4.42 301.91 4.34 301.91 4.19L301.91 3.92L300.73 3.92L300.02 3.92L298.83 3.92L298.83 4.19C298.83 4.34 298.93 4.42 299.11 4.44L299.25 4.44C299.32 4.44 299.42 4.45 299.56 4.45C299.70 4.45 299.85 4.47 300.02 4.47L300.02 13.26C299.85 13.26 299.70 13.27 299.56 13.27C299.42 13.27 299.32 13.29 299.25 13.29L299.11 13.29C298.93 13.30 298.83 13.38 298.83 13.54L298.83 13.82L300.02 13.82L300.73 13.82L301.91 13.82L301.91 13.54C301.91 13.38 301.83 13.30 301.64 13.29L301.50 13.29C301.43 13.29 301.34 13.27 301.20 13.27C301.06 13.27 300.90 13.26 300.73 13.26L300.73 9.07L306.94 9.07L306.94 13.26C306.77 13.26 306.63 13.27 306.49 13.27C306.35 13.27 306.24 13.29 306.17 13.29L306.04 13.29C305.86 13.30 305.76 13.38 305.76 13.54L305.76 13.82L306.94 13.82L307.66 13.82L308.84 13.82L308.84 13.54C308.84 13.38 308.74 13.30 308.56 13.29L308.43 13.29C308.36 13.29 308.25 13.27 308.11 13.27C307.97 13.27 307.83 13.26 307.66 13.26L307.66 4.47C307.83 4.47 307.97 4.45 308.11 4.45C308.25 4.45 308.36 4.44 308.43 4.44Z"></path></g></svg>